<svg width="150" height="141" viewBox="0 0 150 141" fill="none" xmlns="http://www.w3.org/2000/svg">
<path d="M13.9666 116.671C11.5262 116.195 8.51556 114.408 6.06055 115.708C3.80147 116.904 3.00014 120.473 3.00014 122.792C3.00014 124.173 2.97369 125.295 3.63773 126.49C4.18475 127.475 5.218 128.154 6.06055 128.913C7.07352 129.824 9.45186 129.933 10.7787 129.933C11.8249 129.933 12.6102 128.571 13.4565 128.148" stroke="black" stroke-width="4" stroke-linecap="round"/>
<path d="M27.4834 115.141C24.4474 115.213 23.9307 118.257 23.0203 120.624C22.2636 122.592 23.4082 125.062 24.423 126.674C25.6961 128.696 27.9632 130.443 30.4305 130.443C32.7585 130.443 35.5746 129.963 36.6646 127.51C38.0929 124.297 39.1078 119.691 36.027 117.295C34.94 116.449 32.682 114.886 31.3089 114.886C29.684 114.886 28.395 115.195 26.9733 115.906" stroke="black" stroke-width="4" stroke-linecap="round"/>
<path d="M49.4163 114.886C49.4163 122.363 49.6713 129.835 49.6713 137.329" stroke="black" stroke-width="4" stroke-linecap="round"/>
<path d="M49.9263 118.711C51.0576 116.404 52.82 112.846 55.9054 112.846C58.1158 112.846 59.3314 113.127 61.2044 114.376C63.6447 116.003 64.9833 121.128 63.6414 123.812C63.0807 124.934 62.2005 126.093 61.0202 126.617C60.4487 126.871 60.3787 127.383 59.6175 127.383C58.8524 127.383 58.0873 127.383 57.3222 127.383C55.9282 127.383 54.6383 126.926 53.3692 126.362C52.2561 125.868 51.6494 124.801 50.6914 124.322" stroke="black" stroke-width="4" stroke-linecap="round"/>
<path d="M71.0941 113.866C72.4391 115.211 73.1239 116.84 74.4096 118.201C75.2329 119.073 76.1806 119.993 76.8324 121.007C77.6946 122.348 79.0138 123.343 79.5102 124.832" stroke="black" stroke-width="4" stroke-linecap="round"/>
<path d="M85.1209 115.396C83.6781 118.843 81.7691 121.978 80.4028 125.47C79.5897 127.548 78.8559 129.74 77.8666 131.718C77.3013 132.849 77.0374 134.108 76.2514 135.09C75.6569 135.833 74.6646 137.857 74.6646 138.859" stroke="black" stroke-width="4" stroke-linecap="round"/>
<path d="M106.799 115.906C103.393 113.879 99.264 112.204 96.4841 115.779C95.8799 116.555 95.5773 118.782 95.5773 119.732C95.5773 121.471 94.948 123.215 95.5773 124.946C96.0041 126.119 97.3634 127.62 98.3826 128.275C99.6034 129.06 100.671 129.306 101.953 129.876C103.725 130.664 105.689 128.32 107.054 127.638" stroke="black" stroke-width="4" stroke-linecap="round"/>
<path d="M128.477 117.946C125.684 117.444 124.04 115.651 121.208 115.651C120.275 115.651 119.869 115.6 119.168 116.161C118.44 116.744 117.765 118.107 117.765 119.023C117.765 120.182 117.51 121.339 117.51 122.537C117.51 124.15 118.544 125.223 119.706 126.249C120.852 127.26 122.453 128.148 124.014 128.148C125.19 128.148 126.85 128.547 127.712 127.638C129.761 125.474 129.752 122.6 129.752 119.859C129.752 119.009 129.752 118.159 129.752 117.309C129.752 116.348 129.497 115.537 129.497 117.125C129.497 121.242 130.517 125.055 130.517 129.168" stroke="black" stroke-width="4" stroke-linecap="round"/>
<path d="M142.759 108C142.759 109.777 142.927 111.156 143.396 112.846C143.619 113.65 144.034 114.713 144.034 115.538C144.034 117.822 144.544 120.022 144.544 122.339C144.544 123.892 144.544 125.446 144.544 127C144.544 128.24 144.034 129.456 144.034 130.698" stroke="black" stroke-width="4" stroke-linecap="round"/>
<path d="M139.443 115.141C140.908 115.141 143.307 114.765 144.671 115.523C145.42 115.939 146.498 115.906 147.349 115.906" stroke="black" stroke-width="4" stroke-linecap="round"/>
<path d="M60.6847 42.7073C60.6456 42.806 60.5901 42.8833 60.5234 42.9409C60.4586 43.0313 60.3919 43.1203 60.3238 43.2079C60.0421 43.5701 57.6537 45.1545 57.5814 43.9254C57.5211 42.9008 57.7255 41.8905 58.1563 40.9975C58.1905 39.9258 59.1654 39.0239 60.0697 38.7864C60.2809 38.6462 60.504 38.5198 60.7383 38.4088C62.5952 37.5292 61.86 38.9167 61.6031 39.9668C61.6034 39.981 61.6037 39.9954 61.6038 40.0099C61.8792 40.257 61.6399 40.8663 61.3438 41.4212C61.1816 41.873 60.9532 42.3027 60.6847 42.7073Z" fill="black"/>
<path d="M60.7383 40.4815C60.3753 41.1016 59.1639 44.885 60.1643 42.6339C60.3029 42.3222 61.7089 40.1945 61.0253 40.1945C60.5063 40.1945 59.4639 41.2829 59.3193 41.7889C58.9719 43.0048 60.6009 43.5898 60.7383 42.4904C60.7645 42.2806 62.3593 40.1862 61.4399 39.9234C60.5501 39.6692 59.6639 39.8966 59.0801 40.5453C58.3004 41.4117 58.1554 42.3693 58.1554 43.4949C58.1554 44.6276 59.9511 43.5877 60.2281 43.0644C60.7275 42.1211 61.3534 41.0857 61.5833 40.051C61.8184 38.9932 62.6453 37.5055 60.7383 38.4088C58.6421 39.4017 57.4462 41.6275 57.5814 43.9254C57.6537 45.1545 60.0421 43.5701 60.3238 43.2079C61.0065 42.3302 61.5371 41.3135 61.5993 40.1945C61.7498 37.4859 58.1554 38.9691 58.1554 41.0555" stroke="black" stroke-width="3" stroke-linecap="round"/>
<path d="M70.7832 39.2698C71.3434 39.5664 71.2134 40.2757 70.9519 40.9109C71.0767 42.4132 70.2653 44.7653 69.6352 45.3604C69.2003 45.7711 68.4784 45.6788 67.9133 45.6474C67.1152 45.603 67.3393 44.5315 67.3393 43.9892C67.3393 42.5241 68.0471 41.5729 68.2002 40.1945C68.3441 38.9 69.8351 38.7678 70.7832 39.2698Z" fill="black"/>
<path d="M69.3482 39.0465C69.0365 40.4664 68.2002 41.9625 68.2002 43.3514C68.2002 45.09 70.1621 42.3759 70.4324 41.9165C70.7588 41.3616 71.7046 39.7576 70.7832 39.2698C69.8351 38.7678 68.3441 38.9 68.2002 40.1945C68.0471 41.5729 67.3393 42.5241 67.3393 43.9892C67.3393 44.5315 67.1152 45.603 67.9133 45.6474C68.4784 45.6788 69.2003 45.7711 69.6352 45.3604C70.5805 44.4676 71.9338 39.6205 69.9222 39.6205" stroke="black" stroke-width="3" stroke-linecap="round"/>
<path d="M5.49812 70.343C4.77652 69.7963 3.35395 68.6822 3.23463 67.668C3.20119 67.3837 2.91842 66.9212 2.77736 66.6391C2.52313 66.1307 2.71525 65.5951 2.51443 65.073C2.07491 63.9302 2 62.0674 2 60.8318C2 59.1589 2 57.4861 2 55.8132C2 54.4719 2.42746 53.3153 2.70877 52.0293C2.90501 51.1322 3.4404 50.3141 3.4404 49.4343C3.4404 47.2032 4.93017 44.9482 6.11543 43.1354C6.46744 42.5971 6.92544 42.2153 7.35006 41.7407C7.78034 41.2598 8.04452 40.5147 8.48181 39.9803C9.71423 38.474 10.6198 36.9327 12.2429 35.7734C14.0713 34.4673 15.4145 32.6906 17.3872 31.4979C18.2383 30.9832 19.101 30.529 19.8564 29.8517C20.5029 29.2721 21.502 28.4639 22.2571 28.0684C23.5278 27.4027 24.1634 26.0645 25.2979 25.279C26.8421 24.2099 28.0311 22.5861 29.5734 21.4722C31.2181 20.2844 33.1009 19.5296 34.7177 18.3285C35.964 17.4027 37.3662 16.9329 38.6274 16.1222C39.6649 15.4552 40.9223 15.3453 42.0798 14.9447C42.7637 14.7079 43.2387 14.5789 43.9774 14.5789C44.9413 14.5789 45.0322 14.4518 45.5322 13.6186C46.7734 11.5498 48.16 9.34286 49.9448 7.68552C51.4404 6.29672 52.1396 3.94128 53.8087 2.84989C55.4221 1.795 55.9444 2.05661 57.6384 2.83846C58.6481 3.30449 59.6554 4.12388 60.4392 4.90761C61.2722 5.74061 62.0515 6.53031 62.8627 7.42259C63.3025 7.90642 64.1698 8.9622 64.3374 9.5489C64.9354 11.6419 68.9735 10.0519 70.4191 10.0519C72.8541 10.0519 75.289 10.0519 77.724 10.0519C79.0577 10.0519 80.3914 10.0519 81.7251 10.0519C82.7595 10.0519 84.1957 10.0017 85.1318 10.4177C85.8056 10.7172 86.9467 10.875 87.7039 10.875C88.1208 10.875 88.4901 11.0808 88.9386 11.0808C90.0674 11.0808 91.1446 10.2506 92.0366 9.64036C93.5037 8.63652 94.8054 7.35451 96.2434 6.30228C97.1111 5.66741 98.0464 4.93375 98.8042 4.17597C99.0482 3.93192 99.3046 3.16582 99.6501 3.06709C99.9831 2.97196 100.499 2.67955 100.77 2.43835C101.379 1.89746 102.715 1.99694 103.491 2.0268C104.927 2.08203 106.251 4.02692 107.046 4.99906C107.947 6.09982 108.5 7.35528 109.161 8.6115C109.718 9.66983 110.816 10.4117 111.356 11.4923C111.885 12.5496 112.276 13.688 112.808 14.6932C113.485 15.9725 114.398 17.0782 114.923 18.4428C115.279 19.3675 116.005 20.1521 116.409 21.0607C116.932 22.2384 117.961 23.3324 118.833 24.2044C119.452 24.8234 120.795 26.2346 120.936 27.131C121.043 27.8053 122.319 28.6962 122.788 29.1887C123.331 29.7586 123.99 30.1849 124.548 30.7434C126.903 33.0983 129.428 35.3727 131.533 37.9454C132.28 38.8579 133.219 39.5683 133.9 40.5518C134.691 41.6943 135.186 43.0269 136.175 44.0157C139.234 47.0747 139.833 51.6959 138.324 55.7218C137.618 57.6033 136.919 59.8247 136.575 61.8035C136.394 62.8447 135.812 63.7708 135.534 64.7872C135.185 66.069 134.511 67.7872 133.808 68.9026C133.038 70.1254 132.127 71.3466 131.43 72.6065C130.994 73.3965 130.162 73.8026 129.578 74.4699C128.755 75.4107 128.162 76.27 127.109 77.0306C126.146 77.726 125.241 78.5008 124.274 79.1912C121.665 81.0546 118.965 82.3186 115.998 83.5124C113.888 84.3612 111.58 84.6807 109.413 85.3643C105.72 86.5292 101.954 87.0811 98.1183 87.4221C94.8772 87.7102 91.5272 88.6902 88.4241 89.6856C83.9605 91.1173 79.0199 91.4079 74.3516 91.5261C70.5867 91.6214 67.1024 90.4047 63.4 90.1085C60.6241 89.8865 57.8589 89.7616 55.0891 89.3769C50.4291 88.7297 46.187 86.9428 41.5768 86.096C38.7275 85.5726 36.0469 84.5062 33.2887 83.7182C31.742 83.2762 30.2672 82.2503 28.7503 81.6605C27.3736 81.1251 25.8638 80.9503 24.5206 80.3801C23.4293 79.9168 22.5009 79.1523 21.4111 78.6882C20.4546 78.2808 19.4792 77.9253 18.5303 77.4993C16.74 76.6955 14.9169 75.9701 13.226 74.9729C11.4307 73.9141 9.32679 73.1172 7.60156 71.9892C6.77089 71.446 5.59117 70.906 5.08658 70.0229C4.75261 69.4385 3.6002 67.9536 3.02886 67.668" stroke="black" stroke-width="3" stroke-linecap="round"/>
</svg>
