<svg width="425" height="152" viewBox="0 0 425 152" fill="none" xmlns="http://www.w3.org/2000/svg">
<path d="M72.2244 69.7197C68.1542 69.7197 61.4467 65.2604 59.7501 71.1985C58.0713 77.0742 64.3245 77.9823 68.3605 80.119C70.8956 81.4611 71.3658 82.499 71.3658 85.3902C71.3658 87.4098 69.2838 90.7568 67.0725 90.7568C65.4903 90.7568 63.9082 90.7568 62.326 90.7568C60.6351 90.7568 59.3778 89.5465 58.0566 89.4688C57.0875 89.4118 54.1975 87.3317 53.7633 86.4635" stroke="black" stroke-width="5" stroke-linecap="round"/>
<path d="M90.2563 77.8769C96.0347 78.7437 101.474 80.8822 107.334 80.8822C108.37 80.8822 109.511 80.2735 109.576 79.1649C109.71 76.8812 108.671 76.9245 107.239 75.4917C104.619 72.8724 103.577 70.2651 99.6776 69.2903C95.9152 68.3497 93.8955 68.0635 91.1149 71.0076C88.8203 73.4372 88.1096 78.1223 88.1096 81.4069C88.1096 85.2626 89.3112 87.5266 91.7589 90.5182C94.624 94.02 105.283 95.3428 105.283 89.0394" stroke="black" stroke-width="5" stroke-linecap="round"/>
<path d="M123.744 52.9758C123.744 58.8988 123.081 65.2298 123.839 71.103C124.195 73.8635 124.505 76.9474 124.603 79.6896C124.679 81.8198 125.339 83.8413 125.461 86.0341C125.546 87.5617 125.891 89.1189 125.891 90.7567" stroke="black" stroke-width="5" stroke-linecap="round"/>
<path d="M142.634 77.4476C147.715 77.4476 152.795 77.4476 157.875 77.4476C159.229 77.4476 160.702 77.8769 162.169 77.8769C164.012 77.8769 165.375 79.0883 164.292 76.6128C163.024 73.7163 160.365 69.2903 156.802 69.2903C153.885 69.2903 149.441 68.7389 147.023 70.6737C144.94 72.3402 144.015 75.205 143.469 77.6622C143.125 79.2127 142.724 81.1781 143.087 82.8142C143.604 85.1373 145.74 85.7906 146.904 87.5368C149.818 91.9076 162.383 93.0038 162.383 86.0341" stroke="black" stroke-width="5" stroke-linecap="round"/>
<path d="M193.295 70.149C190.648 70.149 188 70.149 185.352 70.149C183.442 70.149 182.749 71.2513 181.703 72.8204C180.359 74.8374 179.557 76.3064 179.557 78.7356C179.557 80.5319 179.06 83.1308 179.652 84.8416C181.222 89.3774 192.219 93.1266 194.154 87.3221" stroke="black" stroke-width="5" stroke-linecap="round"/>
<path d="M210.468 60.7037C210.468 66.5043 213.044 71.5182 213.044 77.2329C213.044 79.8569 213.903 82.7346 213.903 85.1755C213.903 87.179 214.58 90.8137 213.474 92.474" stroke="black" stroke-width="5" stroke-linecap="round"/>
<path d="M202.74 70.5783C207.906 70.5783 213.255 71.0076 218.196 71.0076" stroke="black" stroke-width="5" stroke-linecap="round"/>
<path d="M252.972 91.1861C252.972 87.8478 252.28 84.1509 251.469 80.906C250.803 78.2429 251.068 75.3901 250.396 72.7011C249.431 68.8415 248.525 62.9664 250.396 59.225C253.026 53.9648 256.157 51.6879 262.178 51.6879C267.258 51.6879 270.319 54.7849 271.862 59.4158" stroke="black" stroke-width="5" stroke-linecap="round"/>
<path d="M244.385 69.7196C248.504 69.7196 252.622 69.7196 256.74 69.7196C258.401 69.7196 261.033 69.226 262.417 70.1489" stroke="black" stroke-width="5" stroke-linecap="round"/>
<path d="M269.286 75.7302C269.286 81.0206 270.145 85.9851 270.145 91.186" stroke="black" stroke-width="5" stroke-linecap="round"/>
<path d="M269.286 70.149C266.376 72.4226 269.286 72.4354 269.286 70.5783" stroke="black" stroke-width="5" stroke-linecap="round"/>
<path d="M288.177 53.4052C288.177 61.1331 288.177 68.861 288.177 76.5889C288.177 81.3678 289.035 86.0884 289.035 90.7567" stroke="black" stroke-width="5" stroke-linecap="round"/>
<path d="M305.779 76.5889C308.469 76.5889 312.683 75.853 315.224 76.9228C316.168 77.3202 318.905 77.3896 319.947 77.4475C322.954 77.6146 325.625 78.3062 328.748 78.3062C330.279 78.3062 327.221 74.4177 326.602 73.7982C325.085 72.282 323.655 71.1171 322.094 69.7196C319.654 67.5366 315.092 68.4316 312.004 68.4316C308.855 68.4316 306.739 74.144 306.232 76.4219C305.423 80.0646 307.308 84.2658 309.643 86.8928C312.484 90.0886 314.922 90.7567 319.303 90.7567C322.276 90.7567 324.453 87.0035 325.958 84.7461" stroke="black" stroke-width="5" stroke-linecap="round"/>
<path d="M356.869 70.5783C354.124 70.5783 348.663 67.8697 346.351 69.7196C344.307 71.3542 344.419 73.0084 344.419 75.4917C344.419 78.4125 346.975 79.4727 349.237 80.1189C351.098 80.6508 357.412 79.2735 358.491 81.3115C358.908 82.0985 358.998 87.2507 358.372 87.7514C356.836 88.9799 356.241 90.7567 354.079 90.7567C351.771 90.7567 348.862 92.0005 346.565 90.8521C344.831 89.9849 342.272 88.7325 342.272 86.4634" stroke="black" stroke-width="5" stroke-linecap="round"/>
<path d="M5.14652 35.0362C5.14652 56.5956 4.00036 77.3849 4.00036 98.9665C4.00036 105.832 3.86023 111.816 9.09441 117.05C15.9368 123.893 27.5242 130.187 36.6659 132.969C50.2123 137.092 63.4226 137.044 77.4183 137.044C101.212 137.044 125.13 144.509 148.926 146.15C181.715 148.411 218.348 150.789 250.679 144.176C276.923 138.808 304.719 135.898 331.547 135.898C341.878 135.898 351.898 133.606 362.366 133.606C374.198 133.606 386.276 132.46 398.279 132.46C408.855 132.46 416.011 130.241 418.91 118.642C421.593 107.912 421.203 97.6393 421.203 86.5498C421.203 74.2807 422.029 60.667 418.337 48.8538C416.402 42.6615 415.04 34.235 414.326 28.1593C412.523 12.8373 388.939 12.1993 377.903 8.92926C373.933 7.75298 368.142 8.11507 363.958 7.59208C359.192 6.99634 354.055 7.5284 349.249 7.5284C339.21 7.5284 329.17 7.5284 319.131 7.5284C306.926 7.5284 294.722 7.5284 282.517 7.5284C275.176 7.5284 267.826 7.64679 260.485 7.5284C252.595 7.40113 245.008 4.70143 237.244 4.02625C210.269 1.68062 183.433 4.08992 156.44 4.08992C145.158 4.08992 134.117 6.38224 122.564 6.38224C107.494 6.38224 91.7134 6.13245 76.8452 8.41986C59.9058 11.0259 41.7484 8.50025 25.2043 12.1767C13.9844 14.67 5.14651 18.4615 5.14651 31.5C5.14651 43.1686 4.54621 56.6433 4.54621 68" stroke="black" stroke-width="6" stroke-linecap="round"/>
</svg>
