<svg width="425" height="152" viewBox="0 0 425 152" fill="none" xmlns="http://www.w3.org/2000/svg">
<path d="M93.5214 64.5969C89.1693 62.7593 85.1159 60.2644 80.5308 62.3485C77.9373 63.5274 77.7283 65.3117 76.649 67.71C73.1561 75.4721 84.2455 77.8483 89.3514 79.1248C94.6338 80.4454 93.5639 90.1128 90.562 93.1147C88.1264 95.5504 82.114 95.7677 78.9935 95.3054C75.2875 94.7564 73.1177 92.0985 70 90.5396" stroke="#DF0000" stroke-width="6" stroke-linecap="round"/>
<path d="M117.389 61.8296C117.389 67.8799 117.221 73.9601 117.389 80.0087C117.47 82.9139 118.986 85.7141 120.175 88.2912C120.807 89.6602 122.482 89.9662 123.596 90.7317C124.757 91.53 126.258 92.5913 127.689 92.884C129.867 93.3296 134.945 93.6228 136.913 92.442C139.398 90.9509 142.581 89.8092 143.85 87.0037C144.58 85.3907 145.191 83.4629 145.426 81.6998C145.664 79.9183 145.53 78.0439 145.83 76.2807C146.508 72.2961 146.099 67.9554 146.099 63.905" stroke="#EED600" stroke-width="6" stroke-linecap="round"/>
<path d="M174.117 39C174.117 44.8804 174.117 50.7607 174.117 56.6411C174.117 58.4603 174.117 60.2795 174.117 62.0987C174.117 65.0977 173.489 68.6326 174.29 71.5149C175.34 75.2974 174.809 79.7232 174.809 83.6215C174.809 86.2158 174.809 88.8101 174.809 91.4044C174.809 92.6566 175.155 96.6439 175.155 93.0954C175.155 88.9407 175.317 84.9496 175.923 80.8543C176.419 77.5063 177.584 73.9659 178.806 70.8231C179.668 68.6051 180.743 66.0196 182.419 64.2509C184.55 62.0014 188.398 60.9891 191.335 60.5229C195.814 59.8119 199.571 59.9122 203.499 62.3677C209.753 66.276 208.895 75.5911 206.459 81.5461C205.86 83.0096 205.361 84.4758 204.576 85.8507C203.737 87.3178 202.377 88.3026 201.462 89.6748C199.829 92.1248 194.372 92.2691 191.835 92.2691C187.594 92.2691 184.547 90.3853 181.208 87.7724C179.014 86.0557 176.752 84.3961 175.5 81.892" stroke="#75D927" stroke-width="6" stroke-linecap="round"/>
<path d="M230.845 61.8296C230.845 73.9362 230.845 86.0428 230.845 98.1494C230.845 99.9995 230.512 95.174 230.576 94.5367C230.876 91.5386 231.659 88.5522 232.575 85.6969C233.727 82.1038 234.624 77.9093 236.918 74.7817C238.948 72.0129 240.926 69.1314 243.643 67.0181C245.046 65.9275 248.087 65.2886 249.85 65.2886C252.981 65.2886 254.174 65.8579 256.288 68.3249C259.843 72.4726 260.939 76.7783 260.939 82.161C260.939 86.1311 260.593 90.056 260.593 93.9986C260.593 95.19 260.593 96.3815 260.593 97.5729C260.593 100.28 260.217 92.1707 259.901 89.4826C259.301 84.3805 258.943 78.4291 259.901 73.3981C260.47 70.4106 262.414 66.8485 264.917 65.1157C267.839 63.0927 269.654 62.8673 273.122 62.8673C277.304 62.8673 279.924 66.0563 281.693 69.5932C283.357 72.9225 283.239 76.5953 283.749 80.1625C284.56 85.84 283.422 91.9079 283.422 97.4576" stroke="#35E6FE" stroke-width="6" stroke-linecap="round"/>
<path d="M310.403 61.1378C310.403 73.0544 310.057 84.8772 310.057 96.7659" stroke="#6C69FD" stroke-width="6" stroke-linecap="round"/>
<path d="M310.057 43.4967C308.722 44.5399 307.117 46.9455 308.673 48.6853C309.486 49.5932 311.805 49.8019 312.747 48.9543C313.16 48.5828 313.919 46.1292 313.439 45.649C313.026 45.2355 310.697 44.5344 310.057 44.5344" stroke="#6C69FD" stroke-width="6" stroke-linecap="round"/>
<path d="M340.842 50.7607C340.842 60.7055 340.497 70.5764 340.497 80.5276C340.497 86.4503 340.842 92.2688 340.842 98.1494" stroke="#DF0000" stroke-width="6" stroke-linecap="round"/>
<path d="M331.157 65.9805C336.235 65.9805 341.271 66.3264 346.3 66.3264C347.649 66.3264 353.831 65.6688 354.333 66.6723" stroke="#DF0000" stroke-width="6" stroke-linecap="round"/>
<path d="M5.14652 35.0362C5.14652 56.5956 4.00036 77.3849 4.00036 98.9665C4.00036 105.832 3.86023 111.816 9.09441 117.05C15.9368 123.893 27.5242 130.187 36.6659 132.969C50.2123 137.092 63.4226 137.044 77.4183 137.044C101.212 137.044 125.13 144.509 148.926 146.15C181.715 148.411 218.348 150.789 250.679 144.176C276.923 138.808 304.719 135.898 331.547 135.898C341.878 135.898 351.898 133.606 362.366 133.606C374.198 133.606 386.276 132.46 398.279 132.46C408.855 132.46 416.011 130.241 418.91 118.642C421.593 107.912 421.203 97.6393 421.203 86.5498C421.203 74.2807 422.029 60.667 418.337 48.8538C416.402 42.6615 415.04 34.235 414.326 28.1593C412.523 12.8373 388.939 12.1993 377.903 8.92926C373.933 7.75298 368.142 8.11507 363.958 7.59208C359.192 6.99634 354.055 7.5284 349.249 7.5284C339.21 7.5284 329.17 7.5284 319.131 7.5284C306.926 7.5284 294.722 7.5284 282.517 7.5284C275.176 7.5284 267.826 7.64679 260.485 7.5284C252.595 7.40113 245.008 4.70143 237.244 4.02625C210.269 1.68062 183.433 4.08992 156.44 4.08992C145.158 4.08992 134.117 6.38224 122.564 6.38224C107.494 6.38224 91.7134 6.13245 76.8452 8.41986C59.9058 11.0259 41.7484 8.50025 25.2043 12.1767C13.9844 14.67 5.14651 18.4615 5.14651 31.5C5.14651 43.1686 4.54621 56.6433 4.54621 68" stroke="black" stroke-width="6" stroke-linecap="round"/>
</svg>
