<svg width="417" height="383" viewBox="0 0 417 383" fill="none" xmlns="http://www.w3.org/2000/svg">
<path d="M161.855 233.971C160.17 221.546 158.252 208.612 158.252 196.134C158.252 189.751 156.827 176.712 154.248 170.909C152.304 166.536 155.367 153.159 148.842 155.093C136.673 158.698 120.893 156.947 108.202 156.494C101.517 156.255 94.9415 154.692 87.9814 154.692C83.7012 154.692 79.6901 153.118 75.3688 152.891C66.7529 152.437 74.5492 146.5 77.571 143.882C88.2065 134.664 102.848 126.712 111.405 115.453C115.975 109.44 125.354 103.178 131.625 98.8366C143.484 90.6264 158.929 81.9432 169.062 71.8096C173.593 67.2794 179.318 64.1563 183.877 59.5974C190.185 53.2899 199.372 59.4546 206.9 62.8006C218.803 68.0908 229.477 73.8317 240.734 80.8186C250.234 86.7152 265.349 88.313 273.567 95.233C286.607 106.215 306.254 106.299 318.612 118.656C323.79 123.834 335.692 132.576 342.435 135.273C353.787 139.814 331.419 141.612 327.621 142.48C313.429 145.724 299.133 152.891 284.377 152.891C276.568 152.891 268.983 154.692 260.954 154.692C250.556 154.692 248.341 153.18 248.341 163.701C248.341 176.323 250.143 188.58 250.143 201.539C250.143 214.752 250.143 227.965 250.143 241.179C250.143 249.838 249.794 250.188 241.134 250.188C234.995 250.188 225.084 250.684 219.112 252.39C209.871 255.03 199.628 253.229 190.684 256.994C186.366 258.813 173.926 259.197 169.062 259.197C160.852 259.197 163.657 251.467 163.657 244.782C163.657 238.993 162.483 233.425 160.053 228.566" stroke="#6C69FD" stroke-width="7" stroke-linecap="round"/>
<path d="M161.855 233.971C160.17 221.546 158.252 208.612 158.252 196.134C158.252 189.751 156.827 176.712 154.248 170.909C152.304 166.536 155.367 153.159 148.842 155.093C136.673 158.698 120.893 156.947 108.202 156.494C101.517 156.255 94.9415 154.692 87.9814 154.692C83.7012 154.692 79.6901 153.118 75.3688 152.891C66.7529 152.437 74.5492 146.5 77.571 143.882C88.2065 134.664 102.848 126.712 111.405 115.453C115.975 109.44 125.354 103.178 131.625 98.8366C143.484 90.6264 158.929 81.9432 169.062 71.8096C173.593 67.2794 179.318 64.1563 183.877 59.5974C190.185 53.2899 199.372 59.4546 206.9 62.8006C218.803 68.0908 229.477 73.8317 240.734 80.8186C250.234 86.7152 265.349 88.313 273.567 95.233C286.607 106.215 306.254 106.299 318.612 118.656C323.79 123.834 335.692 132.576 342.435 135.273C353.787 139.814 331.419 141.612 327.621 142.48C313.429 145.724 299.133 152.891 284.377 152.891C276.568 152.891 268.983 154.692 260.954 154.692C250.556 154.692 248.341 153.18 248.341 163.701C248.341 176.323 250.143 188.58 250.143 201.539C250.143 214.752 250.143 227.965 250.143 241.179C250.143 249.838 249.794 250.188 241.134 250.188C234.995 250.188 225.084 250.684 219.112 252.39C209.871 255.03 199.628 253.229 190.684 256.994C186.366 258.813 173.926 259.197 169.062 259.197C160.852 259.197 163.657 251.467 163.657 244.782C163.657 238.993 162.483 233.425 160.053 228.566" stroke="#6C69FD" stroke-width="7" stroke-linecap="round"/>
<path d="M167.721 285.009C178.32 285.009 189.282 286.056 199.655 286.056C206.953 286.056 213.521 287.103 220.653 287.103C225.813 287.103 233.163 288.381 237.871 286.288C240.443 285.145 243.548 286.441 246.247 285.241C248.549 284.219 253.102 283.962 255.671 283.962" stroke="#6C69FD" stroke-width="7" stroke-linecap="round"/>
<path d="M167.721 285.009C178.32 285.009 189.282 286.056 199.655 286.056C206.953 286.056 213.521 287.103 220.653 287.103C225.813 287.103 233.163 288.381 237.871 286.288C240.443 285.145 243.548 286.441 246.247 285.241C248.549 284.219 253.102 283.962 255.671 283.962" stroke="#6C69FD" stroke-width="7" stroke-linecap="round"/>
<path d="M16.9227 100.106C38.726 12.8932 134.417 4 209.39 4C244.39 4 275.286 17.0327 304.605 33.7866C321.113 43.2199 337.048 47.9171 352.594 60.0089C359.478 65.3632 371.517 73.6373 379.453 76.8116C388.345 80.3685 389.863 92.3057 393.201 100.234C402.752 122.917 413.313 141.979 413.313 166.68C413.313 187.552 411.022 209.867 411.022 229.691C411.022 237.106 405.88 249.865 401.348 255.531C395.745 262.535 394.9 272.098 390.4 279.971C384.7 289.946 379.787 298.76 372.579 308.74C367.947 315.154 363.555 323.128 357.177 328.088C352.752 331.53 346.296 332.645 342.284 336.235C332.456 345.028 319.103 352.325 306.642 356.856C295.063 361.067 284.825 368.456 273.036 372.386C240.882 383.104 196.133 380.133 163.564 372.895C134.94 366.534 108.424 353.836 83.2424 339.672C72.4211 333.585 60.4742 326.662 53.5831 316.122C46.1895 304.815 34.14 291.613 30.1612 278.953C26.6978 267.933 16.797 258.833 12.8493 247.384C10.8957 241.719 9.02461 235.126 6.61197 229.818C1.50102 218.574 5.46633 197.401 5.46633 185.011C5.46633 155.166 9.79379 128.622 16.9227 100.106Z" stroke="#6C69FD" stroke-width="7" stroke-linecap="round"/>
<path d="M16.9227 100.106C38.726 12.8932 134.417 4 209.39 4C244.39 4 275.286 17.0327 304.605 33.7866C321.113 43.2199 337.048 47.9171 352.594 60.0089C359.478 65.3632 371.517 73.6373 379.453 76.8116C388.345 80.3685 389.863 92.3057 393.201 100.234C402.752 122.917 413.313 141.979 413.313 166.68C413.313 187.552 411.022 209.867 411.022 229.691C411.022 237.106 405.88 249.865 401.348 255.531C395.745 262.535 394.9 272.098 390.4 279.971C384.7 289.946 379.787 298.76 372.579 308.74C367.947 315.154 363.555 323.128 357.177 328.088C352.752 331.53 346.296 332.645 342.284 336.235C332.456 345.028 319.103 352.325 306.642 356.856C295.063 361.067 284.825 368.456 273.036 372.386C240.882 383.104 196.133 380.133 163.564 372.895C134.94 366.534 108.424 353.836 83.2424 339.672C72.4211 333.585 60.4742 326.662 53.5831 316.122C46.1895 304.815 34.14 291.613 30.1612 278.953C26.6978 267.933 16.797 258.833 12.8493 247.384C10.8957 241.719 9.02461 235.126 6.61197 229.818C1.50102 218.574 5.46633 197.401 5.46633 185.011C5.46633 155.166 9.79379 128.622 16.9227 100.106Z" stroke="#6C69FD" stroke-width="7" stroke-linecap="round"/>
</svg>
